<svg width="134" height="26" fill="none" xmlns="http://www.w3.org/2000/svg"><path d="M91.982 22.014c-1.296 0-2.574-.384-3.466-1.254l.75-.951c.852.708 1.764.991 2.696.991 1.48 0 2.777-.85 2.777-2.509v-1.538c-.507.931-1.56 1.599-2.837 1.599-2.27 0-3.872-1.72-3.872-4.37 0-2.388 1.54-4.492 3.912-4.492 2.29 0 2.878 1.517 2.878 1.517V9.49c.71 0 1.277.566 1.277 1.274v7.284c-.02 2.732-1.865 3.966-4.115 3.966Zm.082-11.25c-1.723 0-2.676 1.518-2.676 3.157 0 1.861.973 3.217 2.716 3.217 1.601 0 2.696-1.538 2.696-3.177 0-1.72-1.115-3.197-2.736-3.197ZM36.14 13.981c.04 1.78 1.136 3.157 2.98 3.157 1.257 0 2.088-.445 2.858-1.154l.871.85c-.77.81-1.966 1.538-3.75 1.538-2.675 0-4.296-1.942-4.296-4.532 0-2.287 1.6-4.33 4.195-4.33 2.19 0 3.507 1.457 3.912 3.358.122.587-.344 1.113-.932 1.113H36.14Zm2.777-3.257c-1.56 0-2.493.971-2.716 2.185h5.29c-.202-1.113-1.074-2.185-2.574-2.185Zm8.574 9.286c-.385 1.053-1.034 1.903-2.33 1.903-.508 0-.893-.06-1.298-.223v-1.254c.304.162.588.242.953.242 1.013 0 1.297-.708 1.6-1.537l.386-.992-3.162-8.397h1.44l2.533 6.617 2.432-6.617h1.399L47.49 20.011Zm5.979-6.029c.041 1.78 1.136 3.157 2.98 3.157 1.257 0 2.088-.445 2.858-1.154l.872.85c-.79.81-1.966 1.538-3.75 1.538-2.676 0-4.297-1.942-4.297-4.532 0-2.287 1.601-4.33 4.196-4.33 2.189 0 3.506 1.457 3.911 3.358.122.587-.344 1.113-.932 1.113h-5.837Zm2.778-3.257c-1.561 0-2.494.971-2.717 2.185h5.29c-.182-1.113-1.074-2.185-2.573-2.185Zm8.837 7.466c-1.5 0-2.453-.587-2.453-2.246v-4.958h-1.236V9.752h1.236V5.847h1.338v3.905h1.581v1.234h-1.58v4.917c0 .648.344 1.032 1.155 1.032h.445v1.234s-.445.02-.486.02Zm3.182-4.209c.041 1.78 1.136 3.157 2.98 3.157 1.257 0 2.088-.445 2.858-1.154l.872.85c-.77.81-1.967 1.538-3.75 1.538-2.676 0-4.298-1.942-4.298-4.532 0-2.287 1.602-4.33 4.196-4.33 2.19 0 3.507 1.457 3.912 3.358.122.587-.344 1.113-.932 1.113h-5.838Zm2.777-3.257c-1.56 0-2.493.971-2.716 2.185h5.29c-.202-1.113-1.074-2.185-2.574-2.185Zm5.898 7.406V5.867h1.338v12.261h-1.338Zm3.933 0V5.867h1.338v12.261h-1.338Zm3.81-10.502V5.666h.385a.95.95 0 0 1 .953.95v1.012h-1.338Zm0 10.501V9.753h1.338v8.356h-1.338v.02Zm14.635-4.148c.04 1.78 1.135 3.157 2.98 3.157 1.256 0 2.087-.445 2.858-1.154l.871.85c-.79.81-1.966 1.538-3.749 1.538-2.677 0-4.298-1.942-4.298-4.532 0-2.287 1.601-4.33 4.196-4.33 2.189 0 3.507 1.457 3.912 3.358.122.587-.344 1.113-.932 1.113H99.32Zm2.777-3.257c-1.561 0-2.493.971-2.716 2.185h5.29c-.203-1.113-1.074-2.185-2.574-2.185Zm11.614 7.406v-5.342c0-1.194-.669-2.044-1.966-2.044-1.561 0-2.412 1.376-2.412 2.55v4.835h-1.338v-7.426a.95.95 0 0 1 .953-.95h.385v1.214c.507-.91 1.5-1.457 2.615-1.457 1.885 0 3.101 1.214 3.101 3.055v5.564h-1.338Zm7.317.242c-2.614 0-4.256-1.963-4.256-4.451 0-2.408 1.743-4.411 4.155-4.411 1.906 0 2.98.971 3.588 1.76l-1.014.79c-.547-.709-1.337-1.296-2.513-1.296-1.723 0-2.858 1.477-2.858 3.096 0 1.902 1.196 3.278 2.838 3.278 1.196 0 2.027-.587 2.736-1.538l.973.708c-.77 1.133-2.068 2.064-3.649 2.064Zm6.183-4.391c.04 1.78 1.135 3.157 2.979 3.157 1.257 0 2.088-.445 2.858-1.154l.872.85c-.771.81-1.966 1.538-3.75 1.538-2.675 0-4.297-1.942-4.297-4.532 0-2.287 1.601-4.33 4.196-4.33 2.189 0 3.506 1.457 3.911 3.358.122.587-.344 1.113-.932 1.113h-5.837Zm2.777-3.257c-1.561 0-2.494.971-2.717 2.185h5.291c-.203-1.113-1.074-2.185-2.574-2.185Z" fill="#323232"/><path d="M15.148 0C6.37 0 0 4.654 0 13.05 0 20.76 7.239 26 14.95 26 23.058 26 30 20.658 30 12.848 30 4.553 22.86 0 15.148 0Zm2.406 20.86c-4.655 0-8.994-2.488-8.994-6.17 0-4.007 3.827-6.212 9.113-6.212 4.654 0 8.954 2.165 8.954 6.13-.02 3.703-4.201 6.253-9.073 6.253Z" fill="url(#a)"/><defs><radialGradient id="a" cx="0" cy="0" r="1" gradientUnits="userSpaceOnUse" gradientTransform="matrix(14.2691 0 0 11.4599 15.053 13.012)"><stop offset=".002" stop-color="#323232" stop-opacity="0"/><stop offset=".999" stop-color="#888"/></radialGradient></defs></svg>