<svg width="87" height="38" fill="none" xmlns="http://www.w3.org/2000/svg"><path d="M63.66 12.151h-8.435l-4.327 6.77-4.399-6.77h-8.87l8.616 12.374-8.471 12.3h8.289c.327-.509 1.054-1.6 2.145-3.275 1.09-1.674 1.89-2.911 2.363-3.675l4.545 6.95h8.834c-.364-.545-3.308-4.73-8.834-12.591l8.543-12.083Z" fill="#888"/><path d="M28.03 11.57c-7.016 0-12.687 5.677-12.687 12.7 0 7.024 5.671 12.701 12.688 12.701s12.688-5.677 12.688-12.7c0-7.024-5.671-12.702-12.688-12.702Zm0 18.741a6.023 6.023 0 0 1-6.034-6.04 6.023 6.023 0 0 1 6.035-6.042 6.023 6.023 0 0 1 6.035 6.041c0 3.312-2.69 6.041-6.035 6.041Z" fill="#888"/><path d="M16.87 12.115h-5.382v-1.893c0-1.237.328-2.11.982-2.583a3.593 3.593 0 0 1 2.254-.765c.836 0 1.564.073 2.254.255V.942C16.251.578 15.051.396 13.38.396c-2.945 0-5.272.874-6.944 2.62-1.672 1.748-2.509 4.077-2.509 6.952v2.147H0v6.369h3.926v18.414h7.563V18.484h3.562a12.405 12.405 0 0 1 1.818-2.875v-3.494Zm64.35 11.574c1.926.728 4.362.218 5.67-1.165.183-.218.11-.545-.108-.655-1.236-.618-2.072-1.674-2.763-2.875-.11-.218-.255-.4-.364-.618a5.919 5.919 0 0 0 1.673-.182c-.328.073-.8-.073-1.346-.364.4-.073.691-.182.691-.182-.4.145-1.309-.4-2.181-1.128l-.073-.073c-2.181-2.038-5.562-4.185-10.07-4.185-4.509 0-9.199 3.384-11.016 7.751-.51.91-1.346 2.184-2.218 2.184 0 0 1.018.11 1.563-.182-.218.983-.69 3.348-.654 3.821l1.563-2.838c-.436.837-1.272 3.13-.145 6.113.145-1.164.581-2.292.581-2.292-.254 1.965-.072 3.166.328 4.294a8.24 8.24 0 0 0 1.345 2.22c2.472 2.657 6.071 4.258 9.998 4.003h.036c6.144-.4 11.161-5.35 11.67-11.463.037-.546.073-1.238.037-1.747 0 0-1.418.764-3.163.582-1.527-.182-3.236-1.42-3.6-1.747 0 .037 0 .073.037.073.036.073.036.146.073.218.036.073.036.182.072.255.037.11.037.182.073.291 0 .073.036.146.036.219.037.29.073.582.073.873 0 3.348-2.727 6.078-6.071 6.078-3.345 0-6.072-2.73-6.072-6.078v.036c0-1.6.618-3.093 1.636-4.185l.036-.036c.328-.328.691-.655 1.091-.91l.037-.036s.036 0 .036-.037c.073-.036.109-.073.182-.109.072-.036.109-.073.181-.11h.037l.436-.218c.036 0 .036-.036.073-.036.727-.327 1.527-.473 2.363-.473.182 0 .364 0 .545.036.618.037 1.236.219 1.818.437.036 0 .036 0 .073.037.182.072.327.145.509.254 0 0 .036 0 .036.037.364.218.727.473 1.055.727.254.292.545.728.69 1.383.037-.109.546-.655-1.127-3.13a1.738 1.738 0 0 0-.145-.29c.836 1.71 3.417 4.913 4.762 5.422Zm.618-1.82c-.291-.51-.4-1.091-.364-1.128.509.182 1.018.364 1.563.582.255.11.51-.145.436-.4-.181-.91-.363-1.929-.327-1.965.436.619 1.454 2.22 3.09 3.057.255.11.255.51 0 .619-2.544 1.419-5.526.946-7.162-1.238 1.746.619 2.145.764 2.545.764.182.037.291-.145.219-.29Zm.908-7.205h.4v-1.492h.582v-.4h-1.563v.4h.581v1.492Zm1.636-1.237.51 1.237h.327l.509-1.237v1.237h.4V12.77h-.582l-.473 1.274-.545-1.274h-.546v1.893h.4v-1.237Z" fill="#888"/></svg>