<svg width="130" height="33" fill="none" xmlns="http://www.w3.org/2000/svg"><path d="M84.616 11.472h-1.71V8.53h-2.533v2.943h-1.72V4.424h1.72v2.798h2.533V4.424h1.71v7.048Zm2.924 0h-1.714V4.424h1.714v7.048Zm7.035-.872c-.264.291-.651.525-1.161.703a5.063 5.063 0 0 1-1.675.266c-.934 0-1.68-.282-2.24-.847-.558-.565-.857-1.35-.896-2.358l-.005-.61c0-.693.124-1.299.373-1.815a2.73 2.73 0 0 1 1.063-1.196c.463-.28 1-.42 1.606-.42.889 0 1.578.201 2.068.604.493.4.78 1 .862 1.796h-1.656c-.058-.393-.186-.674-.382-.842-.196-.168-.473-.252-.833-.252-.43 0-.764.181-.999.542-.235.362-.354.878-.358 1.55v.426c0 .703.121 1.232.363 1.587.245.352.629.528 1.151.528.448 0 .78-.098 1-.295V8.873H91.66V7.706h2.915v2.895Zm6.962.872h-1.71V8.53h-2.533v2.943h-1.72V4.424h1.72v2.798h2.533V4.424h1.71v7.048Zm-19.204 6.766a.692.692 0 0 0-.27-.58c-.176-.14-.488-.283-.935-.432a9.069 9.069 0 0 1-1.098-.43c-.924-.45-1.386-1.066-1.386-1.85 0-.39.114-.734.343-1.03.232-.301.558-.533.98-.698a3.81 3.81 0 0 1 1.42-.252c.513 0 .972.09 1.377.271.408.181.725.44.95.775.226.332.338.713.338 1.142h-1.714c0-.287-.09-.51-.27-.668-.176-.158-.416-.237-.72-.237-.307 0-.55.068-.73.203a.61.61 0 0 0-.264.509c0 .18.098.345.294.493.196.146.54.297 1.033.455.493.155.898.323 1.215.504.771.439 1.156 1.044 1.156 1.815 0 .617-.235 1.1-.705 1.453-.47.351-1.115.527-1.935.527a3.922 3.922 0 0 1-1.573-.305c-.467-.206-.82-.487-1.058-.842a2.2 2.2 0 0 1-.353-1.235h1.725c0 .378.098.657.294.838.199.178.52.266.965.266.284 0 .508-.06.671-.179a.601.601 0 0 0 .25-.513Zm5.026-.75-.706.765v1.859h-1.719v-7.048h1.72v3.107l.597-.895 1.539-2.213h2.126l-2.41 3.118 2.41 3.93h-2.038l-1.519-2.623Zm5.825 2.624h-1.715v-7.048h1.715v7.048Zm2.915-1.307h2.993v1.307H94.38v-7.048h1.72v5.74Zm5.437 0h2.994v1.307h-4.713v-7.048h1.719v5.74Zm-17.283 4.21h-2.14v5.736h-1.72v-5.736H78.29v-1.312h5.962v1.312Zm3.38 3.248h-.93v2.488h-1.72v-7.048h2.807c.846 0 1.507.185 1.984.556.477.372.715.896.715 1.574 0 .49-.1.897-.303 1.22-.2.322-.513.584-.941.784l1.49 2.841v.073h-1.843l-1.259-2.488Zm-.93-1.312h1.087c.327 0 .572-.084.735-.252.166-.17.25-.408.25-.711 0-.304-.084-.541-.25-.712-.167-.174-.412-.261-.735-.261h-1.088v1.936Zm8.877 2.483h-2.357l-.412 1.317h-1.837l2.617-7.048h1.616l2.636 7.048h-1.847l-.416-1.317Zm-1.945-1.312h1.533l-.77-2.444-.763 2.444Zm6.564 2.629h-1.714v-7.048h1.714v7.048Zm7.152 0h-1.709l-2.528-4.386v4.386h-1.72v-7.048h1.72l2.523 4.386v-4.386h1.714v7.048Zm2.92 0h-1.714v-7.048h1.714v7.048Zm7.153 0h-1.71l-2.528-4.386v4.386h-1.719v-7.048h1.719l2.523 4.386v-4.386h1.715v7.048Zm6.927-.871c-.264.29-.651.524-1.161.702a5.062 5.062 0 0 1-1.675.266c-.934 0-1.681-.282-2.239-.847-.559-.565-.858-1.35-.897-2.358l-.005-.61c0-.694.125-1.299.373-1.815.248-.52.602-.918 1.063-1.196.464-.28.999-.42 1.607-.42.888 0 1.577.2 2.067.604.493.4.781.999.862 1.796h-1.656c-.058-.394-.186-.674-.382-.842-.196-.168-.473-.252-.833-.252-.431 0-.764.18-.999.542-.235.362-.354.878-.358 1.55v.425c0 .704.121 1.233.363 1.588.245.352.629.528 1.151.528.448 0 .781-.099 1-.296v-1.093h-1.196v-1.167h2.915v2.895Z" fill="#888"/><path fill-rule="evenodd" clip-rule="evenodd" d="M122.918 10.468a.28.28 0 0 0-.084.2v8.027a.285.285 0 0 1-.287.283h-12.756a.285.285 0 0 1-.287-.283V6.09c0-.157.128-.284.287-.284h12.781c.076 0 .148-.03.202-.083l.574-.566a.283.283 0 0 0-.203-.484h-14.501a.285.285 0 0 0-.287.284v14.87c0 .157.129.284.287.284h15.05a.285.285 0 0 0 .286-.283v-9.726c0-.253-.309-.379-.489-.2l-.573.566Z" fill="#888"/><path d="m111.439 10.864 2.097-1.488a.434.434 0 0 1 .593.087l2.238 2.892a.432.432 0 0 0 .65.037L128.739.405a.434.434 0 0 1 .559-.05l.332.234c.201.142.24.42.086.611l-13.131 16.22a.433.433 0 0 1-.678-.01l-4.56-5.944a.421.421 0 0 1 .092-.602ZM71.522 0H2.867C1.283 0 0 1.268 0 2.833v27.334C0 31.732 1.283 33 2.867 33H71.52c1.584 0 2.867-1.268 2.867-2.833V2.833C74.388 1.268 73.105 0 71.521 0Z" fill="#888"/><path d="M26.438 28.61h-5.936V18.391H11.71v10.217H5.74V4.142h5.97v9.713h8.792V4.142h5.936v24.467Zm15.867-6.504c0-.863-.312-1.535-.935-2.017-.612-.482-1.695-.98-3.248-1.496-1.554-.515-2.824-1.013-3.81-1.495-3.208-1.557-4.813-3.697-4.813-6.42 0-1.355.397-2.548 1.19-3.58.806-1.041 1.94-1.848 3.402-2.419 1.462-.583 3.106-.874 4.932-.874 1.78 0 3.373.314 4.779.941 1.417.628 2.517 1.524 3.299 2.689.782 1.154 1.173 2.476 1.173 3.966h-5.952c0-.997-.312-1.77-.935-2.32-.612-.548-1.446-.823-2.5-.823-1.066 0-1.91.236-2.534.706-.612.46-.919 1.048-.919 1.765 0 .627.34 1.199 1.02 1.714.681.504 1.877 1.03 3.59 1.58 1.711.537 3.117 1.12 4.217 1.747 2.675 1.524 4.013 3.625 4.013 6.302 0 2.14-.816 3.82-2.449 5.041-1.632 1.222-3.871 1.832-6.717 1.832-2.007 0-3.826-.353-5.46-1.058-1.62-.718-2.845-1.692-3.673-2.925-.816-1.243-1.224-2.671-1.224-4.285h5.986c0 1.311.34 2.28 1.02 2.907.692.617 1.809.925 3.35.925.987 0 1.764-.208 2.33-.622.579-.426.868-1.02.868-1.781Zm27.772-13.41h-7.431v19.913h-5.97V8.696H49.38V4.142h20.697v4.554Z" fill="#fff"/></svg>