<svg width="147" height="20" fill="none" xmlns="http://www.w3.org/2000/svg"><g clip-path="url(#a)" fill="#888"><path d="M42.152.694h-9.276l7.87 9.517-13.492 9.788h8.995l7.87-5.981 5.06 5.981h9.276l-8.433-9.788L63.515.694h-9.276l-7.59 5.438L42.152.694Z"/><path d="M72.23 13.746 63.233.423l8.714.272 5.06 7.885L85.44.695h8.995l-15.46 13.051L77.288 20h-6.746l1.686-6.254ZM99.214.423 93.311 5.86h17.457a1.088 1.088 0 0 1 0 2.175h-9.867l-4.779 4.35h12.502a.952.952 0 0 1 0 1.904h-14.47L88.251 20h20.509a8.115 8.115 0 0 0 7.603-5.278l.701-1.877a1.951 1.951 0 0 0-1.828-2.634 2.904 2.904 0 0 0 2.812-2.177l.994-3.845a3.013 3.013 0 0 0-2.917-3.766H99.214Zm26.985 0-5.903 5.438h17.457a1.088 1.088 0 0 1 0 2.175h-9.867l-4.779 4.35h12.502a.951.951 0 1 1 0 1.904h-14.47L115.236 20h20.509a8.115 8.115 0 0 0 7.603-5.278l.701-1.877a1.951 1.951 0 0 0-1.828-2.634 2.904 2.904 0 0 0 2.812-2.177l.994-3.845A3.012 3.012 0 0 0 143.11.423h-16.911Z"/><path fill-rule="evenodd" clip-rule="evenodd" d="M1.707 17.217c.6.56 1.282 1 2.068 1.34 3.566 1.515 7.29 1.47 11.1 1.422l.129-.001c1.489 0 3.106-.224 4.55-.58 1.581-.397 3.02-.831 4.466-1.58 1.472-.763 2.653-1.78 3.723-3.021.638-.741 1.078-1.58 1.468-2.46.878-2.039 1.675-5.365.889-7.382l-.044-.11c-.193-.488-.394-.998-.721-1.37-.703-.78-1.51-1.48-2.544-1.96a13.075 13.075 0 0 0-3.35-1.08c-1.554-.276-4.41-.528-7.238-.4-2.3.103-4.7.382-6.907 1.04-1.776.49-3.158 1.343-4.674 2.3-.682.42-1.178.98-1.675 1.56-.737.713-1.321 1.66-1.695 2.6C.46 9.56.189 11.47.01 13.597c-.125 1.208.86 2.812 1.696 3.62ZM12.109 5.755c-1.034.18-1.986.46-2.875 1-1.883 1.11-2.275 3.582-2.275 5.5 0 .48.642 1.361 1.096 1.521 3.4 1.154 8.468 1.173 11.83.06.744-.24 1.344-.6 1.881-1.12 1.091-1.092 1.758-2.948 1.758-4.46 0-1.161-.703-2.121-1.861-2.341-3.042-.575-6.51-.69-9.554-.16Z"/></g><defs><clipPath id="a"><path fill="#fff" d="M0 0h147v20H0z"/></clipPath></defs></svg>