<svg width="56" height="57" fill="none" xmlns="http://www.w3.org/2000/svg"><g clip-path="url(#a)" fill="#888"><path d="M46.934 10.624c-.027 0-.082-.041-.096-.11-.027-.096.014-.178.124-.192.082-.014.123.041.137.11.028.096 0 .165-.165.192ZM40.38 27.085c-.027-.028-.068-.069-.068-.097.014-.082.069-.11.138-.068.027.013.054.082.04.11-.013.027-.068.04-.11.055ZM20.967 13.427c.014-.027.027-.082.069-.096.082-.027.123.014.137.096 0 .042-.027.097-.055.11-.069 0-.137-.014-.151-.11ZM8.12 14.39c-.027.054-.069.068-.082.027-.014-.028-.014-.069-.014-.11 0-.014.027-.028.041-.028.055.028.069.055.055.11Zm47.76 10.633c-.028.055-.07.069-.11.041-.028-.014-.042-.055-.07-.082.042-.014.083-.042.11-.042.028 0 .042.055.07.083Zm-21.847-12.86c-.027-.014-.055-.028-.082-.055.014-.014.027-.042.041-.042l.083.042a.192.192 0 0 0-.042.055Z"/><path d="M19.057 13.66c.028-.508.275-.892.509-1.277 1.374-2.212 2.748-4.438 4.122-6.65 1.085-1.759 2.184-3.504 3.27-5.262.37-.591.865-.605 1.264-.014 1.319 2.02 2.638 4.04 3.943 6.045 1.704 2.61 3.421 5.235 5.125 7.846l4.781 7.337c1.196 1.84 2.405 3.668 3.6 5.496.412.632.426 1.305.041 1.95-1.964 3.284-3.957 6.568-5.935 9.852l-1.649 2.72c-.343.564-.824.591-1.182.042a985.797 985.797 0 0 1-3.187-4.905l-3.998-6.183c-1.237-1.91-2.474-3.834-3.724-5.744l-3.998-6.141a276.4 276.4 0 0 1-2.734-4.218c-.124-.248-.152-.591-.248-.893ZM.096 13.111c-.165-.645.261-1.099.55-1.566 2.13-3.449 4.287-6.897 6.43-10.36.192-.302.357-.604.563-.893.289-.385.728-.385 1.003.014.715 1.072 1.415 2.157 2.13 3.243 1.236 1.896 2.487 3.805 3.723 5.702l3.422 5.276c1.305 2.02 2.624 4.025 3.943 6.045.893 1.374 1.786 2.748 2.68 4.136.563.865 1.14 1.731 1.703 2.61.37.577.398 1.223.055 1.787a470.437 470.437 0 0 1-3.394 5.619c-1.236 2.047-2.46 4.108-3.696 6.155-.206.358-.412.701-.66 1.045-.288.412-.728.412-.989-.014-.989-1.58-1.978-3.174-2.967-4.754-1.333-2.157-2.666-4.3-3.999-6.458l-4.286-6.925c-1.416-2.28-2.845-4.575-4.26-6.856C1.47 15.983.88 15.062.33 14.114c-.165-.288-.22-.645-.33-.975.014-.014.055-.028.096-.028Zm55.22-.659c.041.577-.165 1.044-.453 1.511-1.745 2.858-3.462 5.743-5.194 8.615-.687 1.14-1.387 2.28-2.088 3.421-.371.605-.825.605-1.21.014-1.882-2.872-3.778-5.743-5.66-8.615l-1.896-2.885c-.412-.646-.412-1.306-.028-1.938 1.951-3.187 3.916-6.347 5.881-9.535.495-.81.99-1.621 1.484-2.418.055-.083.11-.179.165-.261.343-.481.81-.481 1.14 0 .563.797 1.1 1.593 1.663 2.39 1.525 2.212 3.05 4.41 4.575 6.623.48.7.99 1.36 1.429 2.088.151.275.124.66.192.99ZM12.009 49.398c-.179.756-.33 1.43-.495 2.103-.275 1.223-.55 2.445-.838 3.668-.178.756-.714 1.168-1.484 1.154-.398 0-.81-.013-1.181-.123-.22-.069-.481-.316-.55-.536a24.97 24.97 0 0 1-.536-2.226c-.275-1.319-.522-2.638-.783-3.957-.124-.632-.261-1.278-.371-1.91-.055-.343.082-.48.426-.494.453 0 .92.013 1.374 0 .275-.014.398.137.426.384.192 1.306.37 2.597.563 3.902.151 1.003.316 2.006.55 3.023.082-.316.165-.646.233-.962.385-1.745.756-3.503 1.14-5.248.124-.55.344-.729.894-.729h1.333c.412 0 .645.165.741.564.207.865.385 1.731.578 2.597.274 1.25.563 2.514.92 3.778.055-.316.11-.632.151-.948.179-1.182.357-2.377.522-3.559l.33-2.267c.055-.44.165-.535.618-.535h1.196c.37 0 .522.192.453.535-.316 1.567-.618 3.133-.934 4.7l-.577 2.885c-.165.838-.55 1.14-1.402 1.14-.33 0-.673.014-.989-.069-.77-.206-.962-.865-1.113-1.538l-1.154-5.112c.041-.055.014-.096-.041-.22Zm19.812 3.091v3.119c0 .59-.082.687-.66.687h-1.058c-.302 0-.453-.124-.453-.454V44.314c0-.303.151-.44.44-.44h1.195c.44 0 .55.124.55.55v6.457c.137-.15.22-.233.288-.33.783-1.044 1.553-2.088 2.336-3.132.179-.234.385-.357.7-.344.51.028 1.031 0 1.54.014.11 0 .274.055.316.124.04.082-.028.247-.097.33a189.198 189.198 0 0 1-2.967 3.627c-.179.22-.179.357-.014.59 1.017 1.36 2.02 2.735 3.023 4.109.164.22.082.412-.179.426-.66.014-1.333.027-1.992-.014-.165-.014-.344-.179-.454-.33-.728-1.017-1.429-2.06-2.143-3.091-.083-.124-.179-.248-.275-.385-.041-.014-.069 0-.096.014Z"/><path d="M38.732 52.435c-.165 1.058.536 2.006 1.539 2.02 1.044.013 2.075-.055 3.119-.097.48-.027.55.014.55.481 0 .289-.014.577 0 .852.013.275-.124.371-.371.426-1.333.316-2.693.261-4.026.151-1.223-.096-2.171-.824-2.666-1.992a4.886 4.886 0 0 1-.357-1.58c-.041-.92-.041-1.855.082-2.762.22-1.676 1.54-2.83 3.243-2.954.962-.069 1.896 0 2.734.536.962.618 1.457 1.525 1.622 2.61.082.591.068 1.21.082 1.814.014.385-.096.495-.48.495h-5.071Zm3.325-1.58c0-.756-.178-1.415-.852-1.786-.55-.303-1.154-.303-1.69.027-.645.385-.852 1.017-.81 1.772 1.126-.013 2.226-.013 3.352-.013Zm-18.741 4.878a5.05 5.05 0 0 0-.48.248c-.894.48-1.883.426-2.817.288-.88-.137-1.443-.742-1.677-1.649-.192-.783-.192-1.552.124-2.28.399-.92 1.223-1.306 2.157-1.43.742-.095 1.498-.095 2.254-.123.247 0 .357-.082.33-.33-.014-.165 0-.343 0-.508-.028-.756-.372-1.127-1.114-1.14-.7-.014-1.415.027-2.13.055-.26.013-.521.04-.782.054-.289.028-.426-.096-.426-.384v-.852c0-.248.096-.399.33-.44.466-.082.947-.192 1.415-.206.879-.014 1.772-.069 2.624.069 1.443.233 2.267 1.333 2.28 2.885.014 1.924 0 3.847 0 5.757 0 .412-.123.536-.535.536h-.99c-.33.014-.577-.083-.563-.55Zm-.11-3.448c-.618 0-1.195-.055-1.758.013-.88.11-1.347 1.306-.838 2.034a.7.7 0 0 0 .33.22c.741.247 1.442.027 2.115-.289.069-.027.138-.151.138-.233.027-.578.013-1.14.013-1.745Zm3.215-2.241v-5.66c0-.427.11-.537.523-.537h1.126c.44 0 .55.11.55.536v11.212c0 .604-.069.673-.66.673h-.989c-.44 0-.55-.11-.55-.55v-5.674Zm20.637-2.487c.55-.178 1.086-.37 1.621-.55.014 0 .028 0 .028-.013.838-.151.962-.055.962.783 0 .179-.014.37 0 .55.013.316-.11.425-.426.48-.605.11-1.196.275-1.786.413-.275.068-.344.233-.344.494.014 1.979 0 3.957 0 5.936 0 .522-.096.618-.632.618-.37 0-.728.014-1.1 0-.356-.014-.466-.137-.466-.48v-8.272c0-.371.096-.467.467-.467h.99c.576.014.59.027.686.508Z"/></g><defs><clipPath id="a"><path fill="#fff" d="M0 0h56v57H0z"/></clipPath></defs></svg>