<svg width="91" height="30" fill="none" xmlns="http://www.w3.org/2000/svg"><path fill-rule="evenodd" clip-rule="evenodd" d="M35.044 20.392 39.692 8.35h2.46l4.632 12.043h-2.256l-.917-2.466h-5.429l-.899 2.466h-2.24Zm5.853-9.865-2.07 5.63h4.14l-2.07-5.63Zm15.046 5.392c0 2.942-1.595 4.627-3.818 4.627-.865 0-1.578-.256-2.273-.68v3.214h-2.02V11.496h1.545l.322.834c.645-.528 1.46-.987 2.613-.987 2.07 0 3.63 1.667 3.63 4.576Zm-1.934 0c0-1.837-.934-2.926-2.274-2.926-.764 0-1.408.34-1.883.731v4.542c.526.357 1.154.63 1.832.613 1.374 0 2.325-1.021 2.325-2.96Zm11.313 0c0 2.942-1.595 4.627-3.818 4.627-.865 0-1.577-.256-2.273-.68v3.214h-2.019V11.496h1.544l.322.834c.645-.528 1.46-.987 2.613-.987 2.07 0 3.63 1.667 3.63 4.576Zm-1.934 0c0-1.837-.933-2.926-2.274-2.926-.763 0-1.408.34-1.883.731v4.542c.526.357 1.154.63 1.832.613 1.374 0 2.325-1.021 2.325-2.96Zm10.804.68h-6.176c.102 1.463 1.086 2.467 2.664 2.467.831 0 1.781-.272 2.63-.749l.543 1.31a6.68 6.68 0 0 1-3.343.919c-2.596 0-4.377-1.6-4.377-4.56 0-2.823 1.73-4.677 4.072-4.677 2.46 0 3.987 1.922 3.987 4.763v.527Zm-4.004-3.776c-1.222 0-2.053 1.037-2.172 2.534h4.31c-.12-1.496-.9-2.534-2.138-2.534Zm7.19 7.57H75.36V8.042h2.02v12.35Zm3.764 0h-2.02V8.042h2.02v12.35Zm9.684-4.457c0 2.823-1.815 4.644-4.207 4.644-2.426 0-4.208-1.803-4.208-4.627s1.816-4.644 4.225-4.644c2.392 0 4.19 1.803 4.19 4.627Zm-1.866.017c0-1.752-.967-2.977-2.341-2.977-1.391 0-2.341 1.208-2.341 2.96s.967 2.96 2.358 2.96c1.357 0 2.324-1.191 2.324-2.943ZM14.9.414l10.272 5.947a3.094 3.094 0 0 1 1.543 2.678v11.893a3.094 3.094 0 0 1-1.543 2.678L14.9 29.557a3.078 3.078 0 0 1-3.085 0L1.542 23.61A3.094 3.094 0 0 1 0 20.932V9.039c0-1.105.588-2.126 1.542-2.678L11.815.414a3.078 3.078 0 0 1 3.085 0Zm-1.543 9.932-4.007 2.32v4.64l4.007 2.319 4.008-2.32v-4.64l-4.008-2.319Z" fill="#fff"/></svg>