<svg width="77" height="79" fill="none" xmlns="http://www.w3.org/2000/svg"><path fill-rule="evenodd" clip-rule="evenodd" d="M73.209 69.742h1.523c.878 0 1.59.691 1.59 1.543v6.172c0 .852-.712 1.543-1.59 1.543H1.59C.712 79 0 78.31 0 77.457v-6.172c0-.852.712-1.543 1.59-1.543h1.524V42.433H1.59c-.878 0-1.59-.69-1.59-1.542 0-.853.712-1.543 1.59-1.543h1.524V34.87c0-.795.62-1.45 1.417-1.534-.225-2.118.656-4.27 2.498-5.796l4.778-3.958a1.627 1.627 0 0 1 2.064 0l4.78 3.958c.265.22.509.454.734.698v-1.98c0-.852.712-1.543 1.59-1.543h1.285c.613-5.99 4.753-10.988 10.37-13.006V6.325c0-.852.712-1.543 1.59-1.543h2.351V1.543c0-.852.712-1.543 1.59-1.543.878 0 1.59.69 1.59 1.543v3.239h2.35c.878 0 1.59.69 1.59 1.543v5.385c5.618 2.018 9.758 7.016 10.371 13.006h1.285c.878 0 1.59.69 1.59 1.543v1.98a7.64 7.64 0 0 1 .736-.698l4.778-3.958a1.627 1.627 0 0 1 2.064 0l4.779 3.958c1.841 1.525 2.723 3.678 2.497 5.796.797.084 1.418.739 1.418 1.534v4.477h1.523c.878 0 1.59.69 1.59 1.543 0 .852-.712 1.543-1.59 1.543H73.21v27.308Zm-8.136 0h4.955V42.433h-13.09v1.873c.75.123 1.322.755 1.322 1.52 0 .762-.573 1.394-1.323 1.518v22.398h4.956V52.087c0-.852.712-1.543 1.59-1.543.878 0 1.59.691 1.59 1.543v17.655Zm-16.602-7.65v7.65h5.287V47.368H22.564v22.374h5.287v-7.65h-.378c-.877 0-1.59-.69-1.59-1.543 0-.852.713-1.543 1.59-1.543h.5c.767-4.787 5.044-8.462 10.188-8.462 5.145 0 9.42 3.675 10.187 8.462h.501c.878 0 1.59.691 1.59 1.543s-.712 1.543-1.59 1.543h-.378Zm-17.26-3.086h13.9c-.725-3.075-3.564-5.376-6.95-5.376-3.385 0-6.224 2.301-6.95 5.376Zm22.546-24.282v-6.922H39.741l14.016 6.922ZM33.05 38.782H22.565v5.5h31.192v-5.5H43.273c-.68 2.112-2.714 3.65-5.112 3.65s-4.433-1.538-5.111-3.65Zm2.938-1.544c0 1.163.975 2.109 2.173 2.109s2.172-.946 2.172-2.109c0-1.162-.974-2.107-2.172-2.107-1.198 0-2.173.945-2.173 2.107Zm7.285-1.542h5.444L38.16 30.484l-10.556 5.213h5.445c.678-2.113 2.713-3.651 5.11-3.651 2.399 0 4.434 1.538 5.113 3.65Zm13.664 3.062v.589h13.091v-2.934H58.012a1.5 1.5 0 0 1 .248.826c0 .763-.573 1.395-1.323 1.519Zm6.546-11.973-3.746 3.102c-1.123.93-1.606 2.212-1.351 3.44H68.58c.254-1.228-.228-2.51-1.352-3.44l-3.746-3.102ZM40.512 7.868H35.81v3.053a16.503 16.503 0 0 1 4.702 0V7.868Zm10.346 16.848c-.785-6.123-6.178-10.878-12.697-10.878-6.52 0-11.912 4.756-12.698 10.88.492.006.93.23 1.217.576h9.527a1.606 1.606 0 0 1 1.24-.578h13.411ZM36.223 27.24c.08.094.172.178.272.251l-13.93 7.232v-6.922h2.875c.494 0 .935-.218 1.226-.56h9.557Zm-23.384-.455-3.746 3.102c-1.123.93-1.606 2.212-1.351 3.44h10.194c.255-1.228-.228-2.51-1.35-3.44l-3.747-3.102Zm5.472 9.628H6.293v2.934h13.091v-.59c-.75-.123-1.321-.755-1.321-1.518a1.5 1.5 0 0 1 .248-.826Zm1.073 6.02H6.294v27.308h4.955V52.087c0-.852.712-1.543 1.59-1.543.878 0 1.59.691 1.59 1.543v17.655h4.955V47.344c-.75-.124-1.321-.756-1.321-1.519 0-.764.571-1.396 1.321-1.52v-1.871ZM3.18 75.913h69.962v-3.086H44.52c-.877 0-1.59-.691-1.59-1.543s.713-1.543 1.59-1.543h.771v-7.65h-14.26v7.65h.769c.878 0 1.59.691 1.59 1.543s-.712 1.543-1.59 1.543H3.18v3.086Z" fill="#0A8BFE"/></svg>