<svg width="81" height="82" fill="none" xmlns="http://www.w3.org/2000/svg"><path d="M77.557 49.966v-7.89H54.29V17.095h-6.463v-5.26H44.88l-2.586-7.89h-.931V0h-2.586v3.945h-.932l-2.585 7.89h-2.946v5.259h-6.463v24.983H2.585v7.89H0v31.557h80.142V49.966h-2.585ZM46.534 68.375H33.608V59.17c0-3.625 2.9-6.574 6.463-6.574 3.564 0 6.463 2.95 6.463 6.574v9.205Zm-6.463-18.409c-4.99 0-9.048 4.13-9.048 9.204v9.205h-7.756V51.958l16.804-12.21 16.804 12.21v16.417h-7.756V59.17c0-5.074-4.059-9.204-9.048-9.204Zm-6.463-18.409c0-3.625 2.9-6.574 6.463-6.574 3.564 0 6.463 2.95 6.463 6.575 0 2.92-1.929 5.468-4.64 6.283l-1.823-1.325-1.824 1.325c-2.712-.815-4.64-3.36-4.64-6.284Zm25.852 21.04h18.097v15.779H59.46v-15.78Zm15.511-7.89v5.26h-16.39l-4.291-3.119v-2.14h20.68ZM39.711 6.575h.722l1.723 5.26h-4.169l1.723-5.26Zm-4.81 7.89h10.34v2.63h-10.34v-2.63Zm-2.586 5.26h19.389V44.97l-7.348-5.338a9.25 9.25 0 0 0 4.763-8.073c0-5.076-4.059-9.205-9.048-9.205-4.99 0-9.048 4.129-9.048 9.204a9.24 9.24 0 0 0 4.762 8.073l-7.348 5.34V19.722h3.878ZM5.17 44.705h20.682v2.141l-4.291 3.12H5.17v-5.26Zm15.512 7.89v15.779H2.585v-15.78h18.097ZM10.34 78.894H7.756v-2.63h2.585v2.63Zm10.34 0h-2.585v-2.63h2.586v2.63Zm10.342 0h-2.586v-2.63h2.586v2.63Zm10.34 0h-2.585v-2.63h2.586v2.63Zm10.341 0H49.12v-2.63h2.585v2.63Zm10.341 0H59.46v-2.63h2.585v2.63Zm10.341 0H69.8v-2.63h2.585v2.63Zm2.585 0v-5.26h-7.755v5.26H64.63v-5.26h-7.756v5.26H54.29v-5.26h-7.756v5.26h-2.585v-5.26h-7.756v5.26h-2.585v-5.26h-7.756v5.26h-2.585v-5.26h-7.756v5.26h-2.585v-5.26H5.17v5.26H2.585v-7.89h74.972v7.89H74.97Z" fill="#0A8BFE"/></svg>