<svg width="107" height="79" fill="none" xmlns="http://www.w3.org/2000/svg"><path d="M104.985 46.098H81.361L60.553 30.77V2.032A2.022 2.022 0 0 0 58.538 0a2.022 2.022 0 0 0-2.015 2.032v4.064h-6.046V2.032A2.022 2.022 0 0 0 48.462 0a2.022 2.022 0 0 0-2.015 2.032v15.67c0 .08.036.149.046.227-.01.078-.046.147-.046.227v12.615L25.64 46.098H2.015A2.022 2.022 0 0 0 0 48.13v28.45c0 1.123.901 2.032 2.015 2.032h102.97A2.022 2.022 0 0 0 107 76.58V48.13a2.022 2.022 0 0 0-2.015-2.032Zm-54.614 0h-2.913l2.974-13.792c.01-.046-.005-.09.002-.135.022-.12.043-.242.043-.367V20.189h6.046v11.615c0 .174.026.345.069.51.009.042-.002.082.01.123l3.914 13.661h-3.887a2.023 2.023 0 0 0-2.015 2.032v6.097h-2.227V48.13a2.023 2.023 0 0 0-2.016-2.033Zm-17.899 0 12.91-9.51-2.05 9.51h-10.86Zm32.239 0-2.626-9.165 12.443 9.165H64.71ZM56.523 10.16v5.963h-6.046V10.16h6.046ZM4.03 50.162h20.252v24.386h-2.015v-10.16a2.023 2.023 0 0 0-2.016-2.033 2.023 2.023 0 0 0-2.015 2.032v10.16h-2.015v-10.16a2.023 2.023 0 0 0-2.015-2.032 2.023 2.023 0 0 0-2.015 2.032v10.16h-2.015v-10.16a2.022 2.022 0 0 0-2.015-2.032 2.022 2.022 0 0 0-2.015 2.032v10.16H4.03V50.163Zm24.282 0h20.044v6.097c0 1.123.901 2.032 2.015 2.032h6.258a2.023 2.023 0 0 0 2.015-2.032v-6.097h20.044v24.386h-2.015V54.226a2.023 2.023 0 0 0-2.015-2.032 2.023 2.023 0 0 0-2.015 2.032v20.322h-2.015V54.226a2.023 2.023 0 0 0-2.015-2.032 2.023 2.023 0 0 0-2.015 2.032v20.322h-2.015V54.226a2.023 2.023 0 0 0-2.015-2.032 2.023 2.023 0 0 0-2.015 2.032v20.322h-2.015v-10.16a2.023 2.023 0 0 0-2.015-2.033 2.023 2.023 0 0 0-2.016 2.032v10.16h-2.014v-10.16a2.023 2.023 0 0 0-2.016-2.032 2.023 2.023 0 0 0-2.015 2.032v10.16h-2.015v-20.32a2.023 2.023 0 0 0-2.015-2.033 2.023 2.023 0 0 0-2.015 2.032v20.322h-2.015V54.226a2.023 2.023 0 0 0-2.015-2.032 2.023 2.023 0 0 0-2.015 2.032v20.322h-2.015V54.226a2.023 2.023 0 0 0-2.015-2.032 2.023 2.023 0 0 0-2.015 2.032v20.322h-2.015V50.162Zm74.658 24.386h-2.116v-10.16a2.022 2.022 0 0 0-2.015-2.033 2.023 2.023 0 0 0-2.015 2.032v10.16h-2.015v-10.16a2.023 2.023 0 0 0-2.015-2.032 2.023 2.023 0 0 0-2.015 2.032v10.16h-2.015v-10.16a2.023 2.023 0 0 0-2.015-2.032 2.023 2.023 0 0 0-2.015 2.032v10.16h-2.015V50.163h20.251v24.386Z" fill="#0A8BFE"/></svg>