<svg width="63" height="97" fill="none" xmlns="http://www.w3.org/2000/svg"><path fill-rule="evenodd" clip-rule="evenodd" d="M13.624 2a1.15 1.15 0 1 0-2.3 0v1.824H9.388a1.15 1.15 0 0 0 0 2.3h1.936v1.96L3.85 28.692l.146.052-.01.015-1.372 1.984-.2.29-.004.353-.338 35.423-1.743 1.82-.319.334v27.111h62.984V68.937l-.352-.34-1.363-1.314v-34.49l-.11-.233-1.714-3.637-.798-1.694-.086.11-7.234-20.901v-.314h1.936a1.15 1.15 0 0 0 0-2.3h-1.936V2a1.15 1.15 0 1 0-2.3 0v1.824h-1.935a1.15 1.15 0 1 0 0 2.3h1.935v.336l-6.566 22.132-.145.26-2.4 4.3-.146.26V56.07l-7.643-8.897V44.78h1.935a1.15 1.15 0 1 0 0-2.3h-1.935v-1.824a1.15 1.15 0 0 0-2.3 0v1.824h-1.936a1.15 1.15 0 0 0 0 2.3h1.936v2.406l-6.956 8.386V51.37h-.343V31.78l-.13-.25-1.104-2.131.135-.05-7.815-21.266V6.124h1.935a1.15 1.15 0 0 0 0-2.3h-1.935V2Zm36.646 8.39 6.616 19.116-1.437 1.848-.242.311v3.213h-9.014v-2.084l-.11-.233-1.467-3.114L50.27 10.39ZM18.854 28.983 12.481 11.64 6.158 29.074l1.358 1.571.28.324v3.908h8.67v-3.262l.299-.33 2.089-2.302Zm1.727 33.322h-.297l-.046.056v-.056H4.415l-.048 4.981-.004.455-.315.33-1.738 1.815v10.623h18.27V62.305ZM2.31 93.775V82.809h18.27v10.966h-2.5v-1.95a5.95 5.95 0 1 0-11.9 0v1.95H2.31Zm13.47 0v-1.95a3.65 3.65 0 0 0-7.3 0v1.95h7.3Zm7.1 0V82.809h16.9v10.966h-2.5v-.165a9.017 9.017 0 0 0-4.118-7.57 3.126 3.126 0 0 0-3.304-.051 9.236 9.236 0 0 0-4.478 7.786h-2.5Zm4.8 0h7.3v-.165c0-2.278-1.155-4.4-3.068-5.638a.825.825 0 0 0-.87-.012 6.936 6.936 0 0 0-3.361 5.815Zm14.4 0V82.809h18.612v10.966H56.48v-1.95a5.95 5.95 0 1 0-11.9 0v1.95h-2.5Zm12.098-1.95v1.95h-7.3v-1.95a3.65 3.65 0 0 1 7.3 0ZM42.08 80.51h18.614V69.913l-1.363-1.314-.352-.34v-5.953H42.08V80.51Zm-19.2 0h16.9V62.305h-16.9V80.51Zm-2.642-21.336v.832H4.437l.27-28.244.326-.472.463.536v5.35h13.27v-4.674l.99-1.091.482.928v26.834Zm19.542.832h-16.9v-.83l8.123-9.792L39.78 59.6v.405Zm19.2 0h-16.9V34.011l1.163-2.084.651 1.38v3.87h13.614v-4.724l.665-.856.806 1.71v26.698ZM9.852 43.297a1.15 1.15 0 0 0-2.3 0v12.565a1.15 1.15 0 0 0 2.3 0V43.297Zm6.17 0a1.15 1.15 0 1 0-2.3 0v12.565a1.15 1.15 0 0 0 2.3 0V43.297Zm31.078-1.15c.636 0 1.15.515 1.15 1.15v12.565a1.15 1.15 0 1 1-2.3 0V43.297c0-.635.515-1.15 1.15-1.15Zm7.321 1.15a1.15 1.15 0 0 0-2.3 0v12.565a1.15 1.15 0 0 0 2.3 0V43.297ZM51.61 64.238l-.784-.654-.743.702-1.823 1.723a11.756 11.756 0 0 0-3.68 8.543v2.962h12.586v-3.139c0-3.486-1.548-6.793-4.225-9.027l-1.331-1.11Zm-1.77 3.442 1.081-1.021.546.455a9.456 9.456 0 0 1 3.399 7.261v.84H46.88v-.663c0-2.6 1.07-5.086 2.96-6.872Zm-38.098-4.096.784.654 1.33 1.11a11.755 11.755 0 0 1 4.226 9.027v3.14H5.496v-2.963c0-3.233 1.33-6.322 3.68-8.543l1.822-1.723.743-.702Zm.095 3.075-1.08 1.021a9.455 9.455 0 0 0-2.96 6.871v.663h7.985v-.839a9.455 9.455 0 0 0-3.399-7.26l-.546-.456Zm17.866-.898a5.63 5.63 0 0 1 1.285-.147c.551 0 1.081.078 1.578.224l-.986 1.496a3.266 3.266 0 0 0-.868-.043l-1.01-1.53Zm4.383 3.833h2.13a5.109 5.109 0 0 0-1.624-2.65l-1.043 1.581c.244.314.429.675.537 1.07Zm2.13 2.3h-2.398c-.11.2-.24.385-.39.555l1.303 1.974a5.095 5.095 0 0 0 1.486-2.529Zm-5.227 1.654c.132 0 .264-.008.393-.024l1.368 2.073a5.582 5.582 0 0 1-1.762.282 5.603 5.603 0 0 1-1.475-.195l1.41-2.137h.066Zm-2.236-.888-1.29 1.955a5.114 5.114 0 0 1-1.703-2.72h2.4c.157.285.358.543.593.765Zm-.862-3.066h-2.13a5.128 5.128 0 0 1 1.846-2.833L28.62 68.3c-.34.361-.594.802-.73 1.295Zm3.097-6.28c-4.193 0-7.664 3.289-7.664 7.432 0 4.144 3.471 7.433 7.664 7.433s7.664-3.289 7.664-7.433c0-4.143-3.47-7.432-7.664-7.432Zm0 6.266c-.54 0-.906.412-.906.834 0 .421.366.834.907.834.54 0 .907-.413.907-.834 0-.422-.367-.834-.907-.834Z" fill="#0A8BFE"/></svg>