<svg width="83" height="90" fill="none" xmlns="http://www.w3.org/2000/svg"><path fill-rule="evenodd" clip-rule="evenodd" d="M70.545.887 68.36.91l-1.326 15.858-.18-.49-.493-1.337-1.166.817h-.001l-.004.003-.015.01-.059.042-.22.153a239.936 239.936 0 0 1-2.878 1.984c-.82.556-1.752 1.324-2.46 1.934a51.852 51.852 0 0 0-1.146 1.018l-.07.064-.019.018-.005.004-.001.002.746.803-.747-.803-.35.326v4.355h-.144v2.194h.144v1.548l-.654.657-.32.321v9.806l-.369.185-.605.304v42.878h-2.496v-57.75l-.032-.13-1.065.263 1.065-.263v-.002l-.002-.004-.003-.014-.013-.05c-.01-.042-.027-.103-.048-.182a36.42 36.42 0 0 0-.91-2.865c-.63-1.726-1.589-3.931-2.87-5.605-1.146-1.495-3.057-3.214-4.619-4.52a72.809 72.809 0 0 0-2.842-2.253l-.046-.034-.012-.01-.004-.002c-.001 0-.001-.001-.653.881l.652-.882-.687-.507-.66.54-2.988 2.447-.402.329v11.9H29.1v64.577h28.406v-.002H82.24v-48.61l-.437-.33-.537-.404v-10.03l-.437-.33-.537-.404v-8.201l-.294-.316-.803.747.803-.747V20.8l-.002-.001-.004-.005-.016-.017-.057-.06a35.562 35.562 0 0 0-.933-.946c-.577-.564-1.353-1.282-2.068-1.801a88.01 88.01 0 0 0-2.136-1.494 130.567 130.567 0 0 0-1.01-.68l-.06-.04-.017-.011-.004-.003h-.001v-.001l-.607.914.606-.914-1.246-.826-.33 1.144L70.546.887ZM60.16 27.864v2.098h17.936v-2.097H60.162Zm17.936-2.194v-3.683c-.165-.17-.388-.395-.644-.646-.56-.546-1.245-1.174-1.827-1.597a82.277 82.277 0 0 0-1.907-1.336l-1.063 3.688-2.145-.19-.942-9.116-.76 9.094-2.123.287-1.4-3.803c-.606.42-1.36.94-2.035 1.397-.713.483-1.567 1.183-2.26 1.78-.333.287-.62.543-.83.731v3.394h17.936Zm-18.91 6.486H79.07v2.822H59.188v-2.822Zm0 5.016v2.456H79.07v-2.456H59.188Zm-.542 4.65h21.284l.116.087v2.73h-21.83v-2.6l.369-.186.062-.031Zm-.431 5.011v2.818h21.83v-2.818h-21.83Zm0 5.012h21.83v2.817h-21.83v-2.817Zm0 5.011v2.818h21.83v-2.818h-21.83Zm0 5.012h21.83v2.811h-21.83v-2.81Zm0 5.005v2.822h21.83v-2.822h-21.83Zm0 5.016h21.83v2.818h-21.83v-2.818Zm0 5.012v10.33h6.285v-7.875h8.554v7.875h6.992V76.9h-21.83Zm8.48 4.65v5.68h4.165v-5.68h-4.165Zm-30.9 2.1h11.62v3.581h7.9v-1.476h-3.985V26.085L51.306 26a34.217 34.217 0 0 0-.852-2.681c-.608-1.664-1.475-3.617-2.551-5.022-.985-1.285-2.727-2.87-4.284-4.171a70.463 70.463 0 0 0-1.98-1.594l-.144-.111-1.917 1.57V28.51h-4.186v-1.467h-4.097v60.189h4.5V83.65Zm2.194 2.193v1.386h7.232v-1.386h-7.232ZM7.208 21.372h-.752l-.27.702 1.023.395-1.024-.394-.001.003-.004.009-.01.03-.042.11a51.225 51.225 0 0 0-.685 2.038 84.491 84.491 0 0 0-1.65 6.127C2.566 35.682 1.261 43.28.938 52.542c-.206 5.894.532 13.374 1.312 19.34a244.58 244.58 0 0 0 1.388 9.224H.937v8.314h25.479V23.593l-.492-.325-2.587-1.713-.275-.183H7.209Zm17.014 57.984v-2.095H10.088v-5.775H24.22v-2.104H10.09v-5.774h14.132V61.51H10.09v-5.774h14.132v-2.098H10.09v-5.774h14.132V45.76H10.09v-5.775h14.132v-2.1H10.09v-5.774h14.132v-7.339l-1.82-1.206H7.981c-.116.336-.267.79-.444 1.354a82.291 82.291 0 0 0-1.606 5.968c-1.2 5.175-2.483 12.632-2.8 21.731-.2 5.703.518 13.034 1.294 18.98a242.448 242.448 0 0 0 1.459 9.618l.103.587.028.15.007.038.001.01v.002l-1.078.199 1.079-.199.238 1.296H3.131v3.926h21.09V85.13H10.09v-5.774h14.132Zm0 2.194h-11.94v1.386H24.22V81.55Zm0-6.483V73.68h-11.94v1.386H24.22Zm0-9.265h-11.94v1.386H24.22v-1.386Zm0-6.486V57.93h-11.94v1.386H24.22Zm0-7.872v-1.386h-11.94v1.386H24.22Zm0-9.265h-11.94v1.386H24.22V42.18Zm0-6.488v-1.386h-11.94v1.386H24.22Zm12.67 5.01h-1.098v5.774h11.62v-5.774H36.891Zm1.096 3.58v-1.386h7.232v1.386h-7.232Zm-2.194-12.17h11.62v5.774h-11.62v-5.774Zm2.194 2.194v1.386h7.232v-1.386h-7.232Zm-1.097 14.988h-1.097v5.774h11.62v-5.774H36.891Zm1.097 3.58v-1.386h7.232v1.386h-7.232Zm-2.194 5.01h11.62v5.774h-11.62v-5.774Zm2.194 2.194v1.386h7.232v-1.386h-7.232Zm-2.194 6.394h11.62v5.774h-11.62V66.47Zm2.194 2.194v1.386h7.232v-1.386h-7.232Zm-1.097 6.395h-1.097v5.775h11.62V75.06H36.891Zm1.097 3.58v-1.386h7.232v1.386h-7.232Z" fill="#0A8BFE"/></svg>