<svg width="78" height="55" fill="none" xmlns="http://www.w3.org/2000/svg"><path d="M76.7 46.786h-1.3V43.02l2.587-17.91a1.27 1.27 0 0 0-.305-1.024 1.3 1.3 0 0 0-.982-.443h-2.6a16.901 16.901 0 0 0-11.139 4.132L66.28 9.73a1.272 1.272 0 0 0-.281-1.054A1.298 1.298 0 0 0 65 8.214h-2.6a22.113 22.113 0 0 0-11.76 3.355 27.165 27.165 0 0 0-9.678-8.15A27.49 27.49 0 0 0 28.6.5H26a1.312 1.312 0 0 0-.982.443 1.282 1.282 0 0 0-.305 1.024l1.39 9.627A22.295 22.295 0 0 0 14.3 8.214h-2.6a1.312 1.312 0 0 0-.998.462 1.282 1.282 0 0 0-.281 1.054l1.793 9.752A17.147 17.147 0 0 0 6.5 18.5H1.3a1.312 1.312 0 0 0-1.038.512 1.279 1.279 0 0 0-.212 1.127L4.777 36.5H3.9c-.345 0-.675.136-.92.377-.243.24-.38.568-.38.909v9H1.3a1.31 1.31 0 0 0-.92.376c-.243.241-.38.568-.38.91v5.142c0 .341.137.668.38.91.245.24.575.376.92.376h75.4c.345 0 .675-.136.92-.377.243-.24.38-.568.38-.909v-5.143c0-.34-.137-.668-.38-.909a1.308 1.308 0 0 0-.92-.376Zm-22.1 0v-3.857c0-.341-.137-.668-.38-.91a1.307 1.307 0 0 0-.92-.376h-5.2a1.31 1.31 0 0 0-.92.376c-.243.242-.38.569-.38.91v3.857h-5.2v-3.857c0-.341-.137-.668-.38-.91a1.307 1.307 0 0 0-.92-.376h-5.2a1.31 1.31 0 0 0-.92.376c-.243.242-.38.569-.38.91v3.857H20.039l-10.02-9.91A1.3 1.3 0 0 0 9.1 36.5H7.8v-2.571h6.5c.257 0 .508-.076.721-.216l3.573-2.356h8.225l8.735 7.405c.236.2.536.31.846.31h30.744l5.656 4.474v3.24H54.6Zm-2.6 0h-2.6v-2.572H52v2.572Zm-13 0h-2.6v-2.572H39v2.572ZM53.3 36.5h-5.2v-7.906l5.2 6.428V36.5Zm-7.8 0h-6.395l6.395-7.906V36.5Zm28.6-10.286h1.1l-2.066 14.304-4.723-3.736a1.31 1.31 0 0 0-.812-.282H60.34a14.136 14.136 0 0 1 5.134-7.426 14.4 14.4 0 0 1 8.625-2.86ZM63.442 10.786l-3.865 21.021a16.367 16.367 0 0 0-1.884 4.53L55.9 34.12V27.5a26.66 26.66 0 0 0-3.827-13.786A19.511 19.511 0 0 1 62.4 10.786h1.042ZM28.6 3.07c3.244 0 6.456.63 9.453 1.858a24.713 24.713 0 0 1 8.015 5.296 24.405 24.405 0 0 1 5.354 7.926A24.188 24.188 0 0 1 53.3 27.5v3.406l-5.485-6.781a1.296 1.296 0 0 0-1.015-.483 1.311 1.311 0 0 0-1.015.483l-9.56 11.819-4.534-3.844L27.5 3.071h1.1Zm-14.3 7.715a19.64 19.64 0 0 1 12.312 4.33l2.087 14.448-.553-.469c-.236-.2-.536-.31-.846-.31h-9.1a1.31 1.31 0 0 0-.721.217l-.778.513-3.443-18.73H14.3ZM6.5 21.07c2.172.001 4.315.49 6.268 1.429l1.576 8.569-.438.288H6.5a1.31 1.31 0 0 0-.479.091L3.023 21.071H6.5Zm-1.3 18h3.362l7.8 7.715H5.2V39.07Zm70.2 12.86H2.6v-2.572h72.8v2.572Z" fill="#0A8BFE"/></svg>